# xmcd
#
# Track frame offsets: 
#        150
#        18936
#        36508
#        57392
#        80313
#        102145
#        124630
#        142184
#        160563
#        180915
#        199618
#        213330
#        233759
#        250114
#
# Disc length: 3653 seconds
#
# Revision: 0
# Processed by: cddbd v1.5.2PL0 Copyright (c) Steve Scherf et al.
# Submitted via: ExactAudioCopy v0.99pb4
#
DISCID=b00e430e
DTITLE=James Brown - Living in America
DYEAR=2007
DGENRE=R&B
TTITLE0=Living in America
TTITLE1=Can't Get Away Any Harder
TTITLE2=Just Do It
TTITLE3=Show Me
TTITLE4=How Do You Stop
TTITLE5=I'm Real
TTITLE6=Gravity
TTITLE7=(So Tired of Standing Still We Got to) Move On
TTITLE8=Georgia-Lina
TTITLE9=Cold Sweat feat. James Brown and Wilson Pickett
TTITLE10=Please Plese Please [Live]
TTITLE11=Papa's Got a Brand New Bag [Live]
TTITLE12=Get Up Off That Thing [Live]
TTITLE13=Get Up (I Feel Like Being a) Sex Machine [Live]
EXTD=
EXTT0=
EXTT1=
EXTT2=
EXTT3=
EXTT4=
EXTT5=
EXTT6=
EXTT7=
EXTT8=
EXTT9=
EXTT10=
EXTT11=
EXTT12=
EXTT13=
PLAYORDER=
